# MetaSiberia standard primitive; generated by scripts/standard_primitive_library.py.
# Y-up, counter-clockwise outside, explicit UVs and normals.
o Cone
usemtl default
v 0 0.5 0
v 0 -0.5 0
v 0.5 -0.5 0
v 0.4957224307 -0.5 0.06526309611
v 0.4829629131 -0.5 0.1294095226
v 0.4619397663 -0.5 0.1913417162
v 0.4330127019 -0.5 0.25
v 0.3966766701 -0.5 0.3043807145
v 0.3535533906 -0.5 0.3535533906
v 0.3043807145 -0.5 0.3966766701
v 0.25 -0.5 0.4330127019
v 0.1913417162 -0.5 0.4619397663
v 0.1294095226 -0.5 0.4829629131
v 0.06526309611 -0.5 0.4957224307
v 3.061616998e-17 -0.5 0.5
v -0.06526309611 -0.5 0.4957224307
v -0.1294095226 -0.5 0.4829629131
v -0.1913417162 -0.5 0.4619397663
v -0.25 -0.5 0.4330127019
v -0.3043807145 -0.5 0.3966766701
v -0.3535533906 -0.5 0.3535533906
v -0.3966766701 -0.5 0.3043807145
v -0.4330127019 -0.5 0.25
v -0.4619397663 -0.5 0.1913417162
v -0.4829629131 -0.5 0.1294095226
v -0.4957224307 -0.5 0.06526309611
v -0.5 -0.5 6.123233996e-17
v -0.4957224307 -0.5 -0.06526309611
v -0.4829629131 -0.5 -0.1294095226
v -0.4619397663 -0.5 -0.1913417162
v -0.4330127019 -0.5 -0.25
v -0.3966766701 -0.5 -0.3043807145
v -0.3535533906 -0.5 -0.3535533906
v -0.3043807145 -0.5 -0.3966766701
v -0.25 -0.5 -0.4330127019
v -0.1913417162 -0.5 -0.4619397663
v -0.1294095226 -0.5 -0.4829629131
v -0.06526309611 -0.5 -0.4957224307
v -9.184850994e-17 -0.5 -0.5
v 0.06526309611 -0.5 -0.4957224307
v 0.1294095226 -0.5 -0.4829629131
v 0.1913417162 -0.5 -0.4619397663
v 0.25 -0.5 -0.4330127019
v 0.3043807145 -0.5 -0.3966766701
v 0.3535533906 -0.5 -0.3535533906
v 0.3966766701 -0.5 -0.3043807145
v 0.4330127019 -0.5 -0.25
v 0.4619397663 -0.5 -0.1913417162
v 0.4829629131 -0.5 -0.1294095226
v 0.4957224307 -0.5 -0.06526309611
vt 0.01041666667 1
vn 0.8928941771 0.4464470886 0.0585233763
vt 0.02083333333 0
vn 0.8867752424 0.4472135955 0.1167461755
vt 0 0
vn 0.894427191 0.4472135955 0
vt 0.5 0.5
vn 0 -1 0
vt 1 0.5
vn 0 -1 0
vt 0.9957224307 0.5652630961
vn 0 -1 0
vt 0.03125 1
vn 0.8776165102 0.4464470886 0.1745687777
vt 0.04166666667 0
vn 0.8639503235 0.4472135955 0.2314947915
vt 0.02083333333 0
vn 0.8867752424 0.4472135955 0.1167461755
vt 0.5 0.5
vn 0 -1 0
vt 0.9957224307 0.5652630961
vn 0 -1 0
vt 0.9829629131 0.6294095226
vn 0 -1 0
vt 0.05208333333 1
vn 0.8473225815 0.4464470886 0.2876272589
vt 0.0625 0
vn 0.8263429751 0.4472135955 0.3422824675
vt 0.04166666667 0
vn 0.8639503235 0.4472135955 0.2314947915
vt 0.5 0.5
vn 0 -1 0
vt 0.9829629131 0.6294095226
vn 0 -1 0
vt 0.9619397663 0.6913417162
vn 0 -1 0
vt 0.07291666667 1
vn 0.8025307284 0.4464470886 0.395764358
vt 0.08333333333 0
vn 0.7745966692 0.4472135955 0.4472135955
vt 0.0625 0
vn 0.8263429751 0.4472135955 0.3422824675
vt 0.5 0.5
vn 0 -1 0
vt 0.9619397663 0.6913417162
vn 0 -1 0
vt 0.9330127019 0.75
vn 0 -1 0
vt 0.09375 1
vn 0.7440073521 0.4464470886 0.4971298191
vt 0.1041666667 0
vn 0.7095967996 0.4472135955 0.5444927749
vt 0.08333333333 0
vn 0.7745966692 0.4472135955 0.4472135955
vt 0.5 0.5
vn 0 -1 0
vt 0.9330127019 0.75
vn 0 -1 0
vt 0.8966766701 0.8043807145
vn 0 -1 0
vt 0.1145833333 1
vn 0.6727538038 0.4464470886 0.5899892513
vt 0.125 0
vn 0.632455532 0.4472135955 0.632455532
vt 0.1041666667 0
vn 0.7095967996 0.4472135955 0.5444927749
vt 0.5 0.5
vn 0 -1 0
vt 0.8966766701 0.8043807145
vn 0 -1 0
vt 0.8535533906 0.8535533906
vn 0 -1 0
vt 0.1354166667 1
vn 0.5899892513 0.4464470886 0.6727538038
vt 0.1458333333 0
vn 0.5444927749 0.4472135955 0.7095967996
vt 0.125 0
vn 0.632455532 0.4472135955 0.632455532
vt 0.5 0.5
vn 0 -1 0
vt 0.8535533906 0.8535533906
vn 0 -1 0
vt 0.8043807145 0.8966766701
vn 0 -1 0
vt 0.15625 1
vn 0.4971298191 0.4464470886 0.7440073521
vt 0.1666666667 0
vn 0.4472135955 0.4472135955 0.7745966692
vt 0.1458333333 0
vn 0.5444927749 0.4472135955 0.7095967996
vt 0.5 0.5
vn 0 -1 0
vt 0.8043807145 0.8966766701
vn 0 -1 0
vt 0.75 0.9330127019
vn 0 -1 0
vt 0.1770833333 1
vn 0.395764358 0.4464470886 0.8025307284
vt 0.1875 0
vn 0.3422824675 0.4472135955 0.8263429751
vt 0.1666666667 0
vn 0.4472135955 0.4472135955 0.7745966692
vt 0.5 0.5
vn 0 -1 0
vt 0.75 0.9330127019
vn 0 -1 0
vt 0.6913417162 0.9619397663
vn 0 -1 0
vt 0.1979166667 1
vn 0.2876272589 0.4464470886 0.8473225815
vt 0.2083333333 0
vn 0.2314947915 0.4472135955 0.8639503235
vt 0.1875 0
vn 0.3422824675 0.4472135955 0.8263429751
vt 0.5 0.5
vn 0 -1 0
vt 0.6913417162 0.9619397663
vn 0 -1 0
vt 0.6294095226 0.9829629131
vn 0 -1 0
vt 0.21875 1
vn 0.1745687777 0.4464470886 0.8776165102
vt 0.2291666667 0
vn 0.1167461755 0.4472135955 0.8867752424
vt 0.2083333333 0
vn 0.2314947915 0.4472135955 0.8639503235
vt 0.5 0.5
vn 0 -1 0
vt 0.6294095226 0.9829629131
vn 0 -1 0
vt 0.5652630961 0.9957224307
vn 0 -1 0
vt 0.2395833333 1
vn 0.0585233763 0.4464470886 0.8928941771
vt 0.25 0
vn 5.476786983e-17 0.4472135955 0.894427191
vt 0.2291666667 0
vn 0.1167461755 0.4472135955 0.8867752424
vt 0.5 0.5
vn 0 -1 0
vt 0.5652630961 0.9957224307
vn 0 -1 0
vt 0.5 1
vn 0 -1 0
vt 0.2604166667 1
vn -0.0585233763 0.4464470886 0.8928941771
vt 0.2708333333 0
vn -0.1167461755 0.4472135955 0.8867752424
vt 0.25 0
vn 5.476786983e-17 0.4472135955 0.894427191
vt 0.5 0.5
vn 0 -1 0
vt 0.5 1
vn 0 -1 0
vt 0.4347369039 0.9957224307
vn 0 -1 0
vt 0.28125 1
vn -0.1745687777 0.4464470886 0.8776165102
vt 0.2916666667 0
vn -0.2314947915 0.4472135955 0.8639503235
vt 0.2708333333 0
vn -0.1167461755 0.4472135955 0.8867752424
vt 0.5 0.5
vn 0 -1 0
vt 0.4347369039 0.9957224307
vn 0 -1 0
vt 0.3705904774 0.9829629131
vn 0 -1 0
vt 0.3020833333 1
vn -0.2876272589 0.4464470886 0.8473225815
vt 0.3125 0
vn -0.3422824675 0.4472135955 0.8263429751
vt 0.2916666667 0
vn -0.2314947915 0.4472135955 0.8639503235
vt 0.5 0.5
vn 0 -1 0
vt 0.3705904774 0.9829629131
vn 0 -1 0
vt 0.3086582838 0.9619397663
vn 0 -1 0
vt 0.3229166667 1
vn -0.395764358 0.4464470886 0.8025307284
vt 0.3333333333 0
vn -0.4472135955 0.4472135955 0.7745966692
vt 0.3125 0
vn -0.3422824675 0.4472135955 0.8263429751
vt 0.5 0.5
vn 0 -1 0
vt 0.3086582838 0.9619397663
vn 0 -1 0
vt 0.25 0.9330127019
vn 0 -1 0
vt 0.34375 1
vn -0.4971298191 0.4464470886 0.7440073521
vt 0.3541666667 0
vn -0.5444927749 0.4472135955 0.7095967996
vt 0.3333333333 0
vn -0.4472135955 0.4472135955 0.7745966692
vt 0.5 0.5
vn 0 -1 0
vt 0.25 0.9330127019
vn 0 -1 0
vt 0.1956192855 0.8966766701
vn 0 -1 0
vt 0.3645833333 1
vn -0.5899892513 0.4464470886 0.6727538038
vt 0.375 0
vn -0.632455532 0.4472135955 0.632455532
vt 0.3541666667 0
vn -0.5444927749 0.4472135955 0.7095967996
vt 0.5 0.5
vn 0 -1 0
vt 0.1956192855 0.8966766701
vn 0 -1 0
vt 0.1464466094 0.8535533906
vn 0 -1 0
vt 0.3854166667 1
vn -0.6727538038 0.4464470886 0.5899892513
vt 0.3958333333 0
vn -0.7095967996 0.4472135955 0.5444927749
vt 0.375 0
vn -0.632455532 0.4472135955 0.632455532
vt 0.5 0.5
vn 0 -1 0
vt 0.1464466094 0.8535533906
vn 0 -1 0
vt 0.1033233299 0.8043807145
vn 0 -1 0
vt 0.40625 1
vn -0.7440073521 0.4464470886 0.4971298191
vt 0.4166666667 0
vn -0.7745966692 0.4472135955 0.4472135955
vt 0.3958333333 0
vn -0.7095967996 0.4472135955 0.5444927749
vt 0.5 0.5
vn 0 -1 0
vt 0.1033233299 0.8043807145
vn 0 -1 0
vt 0.06698729811 0.75
vn 0 -1 0
vt 0.4270833333 1
vn -0.8025307284 0.4464470886 0.395764358
vt 0.4375 0
vn -0.8263429751 0.4472135955 0.3422824675
vt 0.4166666667 0
vn -0.7745966692 0.4472135955 0.4472135955
vt 0.5 0.5
vn 0 -1 0
vt 0.06698729811 0.75
vn 0 -1 0
vt 0.03806023374 0.6913417162
vn 0 -1 0
vt 0.4479166667 1
vn -0.8473225815 0.4464470886 0.2876272589
vt 0.4583333333 0
vn -0.8639503235 0.4472135955 0.2314947915
vt 0.4375 0
vn -0.8263429751 0.4472135955 0.3422824675
vt 0.5 0.5
vn 0 -1 0
vt 0.03806023374 0.6913417162
vn 0 -1 0
vt 0.01703708686 0.6294095226
vn 0 -1 0
vt 0.46875 1
vn -0.8776165102 0.4464470886 0.1745687777
vt 0.4791666667 0
vn -0.8867752424 0.4472135955 0.1167461755
vt 0.4583333333 0
vn -0.8639503235 0.4472135955 0.2314947915
vt 0.5 0.5
vn 0 -1 0
vt 0.01703708686 0.6294095226
vn 0 -1 0
vt 0.004277569313 0.5652630961
vn 0 -1 0
vt 0.4895833333 1
vn -0.8928941771 0.4464470886 0.0585233763
vt 0.5 0
vn -0.894427191 0.4472135955 1.095357397e-16
vt 0.4791666667 0
vn -0.8867752424 0.4472135955 0.1167461755
vt 0.5 0.5
vn 0 -1 0
vt 0.004277569313 0.5652630961
vn 0 -1 0
vt 0 0.5
vn 0 -1 0
vt 0.5104166667 1
vn -0.8928941771 0.4464470886 -0.0585233763
vt 0.5208333333 0
vn -0.8867752424 0.4472135955 -0.1167461755
vt 0.5 0
vn -0.894427191 0.4472135955 1.095357397e-16
vt 0.5 0.5
vn -0 -1 0
vt 0 0.5
vn -0 -1 0
vt 0.004277569313 0.4347369039
vn -0 -1 0
vt 0.53125 1
vn -0.8776165102 0.4464470886 -0.1745687777
vt 0.5416666667 0
vn -0.8639503235 0.4472135955 -0.2314947915
vt 0.5208333333 0
vn -0.8867752424 0.4472135955 -0.1167461755
vt 0.5 0.5
vn 0 -1 0
vt 0.004277569313 0.4347369039
vn 0 -1 0
vt 0.01703708686 0.3705904774
vn 0 -1 0
vt 0.5520833333 1
vn -0.8473225815 0.4464470886 -0.2876272589
vt 0.5625 0
vn -0.8263429751 0.4472135955 -0.3422824675
vt 0.5416666667 0
vn -0.8639503235 0.4472135955 -0.2314947915
vt 0.5 0.5
vn 0 -1 0
vt 0.01703708686 0.3705904774
vn 0 -1 0
vt 0.03806023374 0.3086582838
vn 0 -1 0
vt 0.5729166667 1
vn -0.8025307284 0.4464470886 -0.395764358
vt 0.5833333333 0
vn -0.7745966692 0.4472135955 -0.4472135955
vt 0.5625 0
vn -0.8263429751 0.4472135955 -0.3422824675
vt 0.5 0.5
vn 0 -1 0
vt 0.03806023374 0.3086582838
vn 0 -1 0
vt 0.06698729811 0.25
vn 0 -1 0
vt 0.59375 1
vn -0.7440073521 0.4464470886 -0.4971298191
vt 0.6041666667 0
vn -0.7095967996 0.4472135955 -0.5444927749
vt 0.5833333333 0
vn -0.7745966692 0.4472135955 -0.4472135955
vt 0.5 0.5
vn 0 -1 0
vt 0.06698729811 0.25
vn 0 -1 0
vt 0.1033233299 0.1956192855
vn 0 -1 0
vt 0.6145833333 1
vn -0.6727538038 0.4464470886 -0.5899892513
vt 0.625 0
vn -0.632455532 0.4472135955 -0.632455532
vt 0.6041666667 0
vn -0.7095967996 0.4472135955 -0.5444927749
vt 0.5 0.5
vn 0 -1 0
vt 0.1033233299 0.1956192855
vn 0 -1 0
vt 0.1464466094 0.1464466094
vn 0 -1 0
vt 0.6354166667 1
vn -0.5899892513 0.4464470886 -0.6727538038
vt 0.6458333333 0
vn -0.5444927749 0.4472135955 -0.7095967996
vt 0.625 0
vn -0.632455532 0.4472135955 -0.632455532
vt 0.5 0.5
vn 0 -1 0
vt 0.1464466094 0.1464466094
vn 0 -1 0
vt 0.1956192855 0.1033233299
vn 0 -1 0
vt 0.65625 1
vn -0.4971298191 0.4464470886 -0.7440073521
vt 0.6666666667 0
vn -0.4472135955 0.4472135955 -0.7745966692
vt 0.6458333333 0
vn -0.5444927749 0.4472135955 -0.7095967996
vt 0.5 0.5
vn 0 -1 0
vt 0.1956192855 0.1033233299
vn 0 -1 0
vt 0.25 0.06698729811
vn 0 -1 0
vt 0.6770833333 1
vn -0.395764358 0.4464470886 -0.8025307284
vt 0.6875 0
vn -0.3422824675 0.4472135955 -0.8263429751
vt 0.6666666667 0
vn -0.4472135955 0.4472135955 -0.7745966692
vt 0.5 0.5
vn 0 -1 0
vt 0.25 0.06698729811
vn 0 -1 0
vt 0.3086582838 0.03806023374
vn 0 -1 0
vt 0.6979166667 1
vn -0.2876272589 0.4464470886 -0.8473225815
vt 0.7083333333 0
vn -0.2314947915 0.4472135955 -0.8639503235
vt 0.6875 0
vn -0.3422824675 0.4472135955 -0.8263429751
vt 0.5 0.5
vn 0 -1 0
vt 0.3086582838 0.03806023374
vn 0 -1 0
vt 0.3705904774 0.01703708686
vn 0 -1 0
vt 0.71875 1
vn -0.1745687777 0.4464470886 -0.8776165102
vt 0.7291666667 0
vn -0.1167461755 0.4472135955 -0.8867752424
vt 0.7083333333 0
vn -0.2314947915 0.4472135955 -0.8639503235
vt 0.5 0.5
vn 0 -1 0
vt 0.3705904774 0.01703708686
vn 0 -1 0
vt 0.4347369039 0.004277569313
vn 0 -1 0
vt 0.7395833333 1
vn -0.0585233763 0.4464470886 -0.8928941771
vt 0.75 0
vn -1.643036095e-16 0.4472135955 -0.894427191
vt 0.7291666667 0
vn -0.1167461755 0.4472135955 -0.8867752424
vt 0.5 0.5
vn 0 -1 0
vt 0.4347369039 0.004277569313
vn 0 -1 0
vt 0.5 0
vn 0 -1 0
vt 0.7604166667 1
vn 0.0585233763 0.4464470886 -0.8928941771
vt 0.7708333333 0
vn 0.1167461755 0.4472135955 -0.8867752424
vt 0.75 0
vn -1.643036095e-16 0.4472135955 -0.894427191
vt 0.5 0.5
vn 0 -1 -0
vt 0.5 0
vn 0 -1 -0
vt 0.5652630961 0.004277569313
vn 0 -1 -0
vt 0.78125 1
vn 0.1745687777 0.4464470886 -0.8776165102
vt 0.7916666667 0
vn 0.2314947915 0.4472135955 -0.8639503235
vt 0.7708333333 0
vn 0.1167461755 0.4472135955 -0.8867752424
vt 0.5 0.5
vn 0 -1 0
vt 0.5652630961 0.004277569313
vn 0 -1 0
vt 0.6294095226 0.01703708686
vn 0 -1 0
vt 0.8020833333 1
vn 0.2876272589 0.4464470886 -0.8473225815
vt 0.8125 0
vn 0.3422824675 0.4472135955 -0.8263429751
vt 0.7916666667 0
vn 0.2314947915 0.4472135955 -0.8639503235
vt 0.5 0.5
vn 0 -1 0
vt 0.6294095226 0.01703708686
vn 0 -1 0
vt 0.6913417162 0.03806023374
vn 0 -1 0
vt 0.8229166667 1
vn 0.395764358 0.4464470886 -0.8025307284
vt 0.8333333333 0
vn 0.4472135955 0.4472135955 -0.7745966692
vt 0.8125 0
vn 0.3422824675 0.4472135955 -0.8263429751
vt 0.5 0.5
vn 0 -1 0
vt 0.6913417162 0.03806023374
vn 0 -1 0
vt 0.75 0.06698729811
vn 0 -1 0
vt 0.84375 1
vn 0.4971298191 0.4464470886 -0.7440073521
vt 0.8541666667 0
vn 0.5444927749 0.4472135955 -0.7095967996
vt 0.8333333333 0
vn 0.4472135955 0.4472135955 -0.7745966692
vt 0.5 0.5
vn 0 -1 0
vt 0.75 0.06698729811
vn 0 -1 0
vt 0.8043807145 0.1033233299
vn 0 -1 0
vt 0.8645833333 1
vn 0.5899892513 0.4464470886 -0.6727538038
vt 0.875 0
vn 0.632455532 0.4472135955 -0.632455532
vt 0.8541666667 0
vn 0.5444927749 0.4472135955 -0.7095967996
vt 0.5 0.5
vn 0 -1 0
vt 0.8043807145 0.1033233299
vn 0 -1 0
vt 0.8535533906 0.1464466094
vn 0 -1 0
vt 0.8854166667 1
vn 0.6727538038 0.4464470886 -0.5899892513
vt 0.8958333333 0
vn 0.7095967996 0.4472135955 -0.5444927749
vt 0.875 0
vn 0.632455532 0.4472135955 -0.632455532
vt 0.5 0.5
vn 0 -1 0
vt 0.8535533906 0.1464466094
vn 0 -1 0
vt 0.8966766701 0.1956192855
vn 0 -1 0
vt 0.90625 1
vn 0.7440073521 0.4464470886 -0.4971298191
vt 0.9166666667 0
vn 0.7745966692 0.4472135955 -0.4472135955
vt 0.8958333333 0
vn 0.7095967996 0.4472135955 -0.5444927749
vt 0.5 0.5
vn 0 -1 0
vt 0.8966766701 0.1956192855
vn 0 -1 0
vt 0.9330127019 0.25
vn 0 -1 0
vt 0.9270833333 1
vn 0.8025307284 0.4464470886 -0.395764358
vt 0.9375 0
vn 0.8263429751 0.4472135955 -0.3422824675
vt 0.9166666667 0
vn 0.7745966692 0.4472135955 -0.4472135955
vt 0.5 0.5
vn 0 -1 0
vt 0.9330127019 0.25
vn 0 -1 0
vt 0.9619397663 0.3086582838
vn 0 -1 0
vt 0.9479166667 1
vn 0.8473225815 0.4464470886 -0.2876272589
vt 0.9583333333 0
vn 0.8639503235 0.4472135955 -0.2314947915
vt 0.9375 0
vn 0.8263429751 0.4472135955 -0.3422824675
vt 0.5 0.5
vn 0 -1 0
vt 0.9619397663 0.3086582838
vn 0 -1 0
vt 0.9829629131 0.3705904774
vn 0 -1 0
vt 0.96875 1
vn 0.8776165102 0.4464470886 -0.1745687777
vt 0.9791666667 0
vn 0.8867752424 0.4472135955 -0.1167461755
vt 0.9583333333 0
vn 0.8639503235 0.4472135955 -0.2314947915
vt 0.5 0.5
vn 0 -1 0
vt 0.9829629131 0.3705904774
vn 0 -1 0
vt 0.9957224307 0.4347369039
vn 0 -1 0
vt 0.9895833333 1
vn 0.8928941771 0.4464470886 -0.0585233763
vt 1 0
vn 0.894427191 0.4472135955 0
vt 0.9791666667 0
vn 0.8867752424 0.4472135955 -0.1167461755
vt 0.5 0.5
vn 0 -1 0
vt 0.9957224307 0.4347369039
vn 0 -1 0
vt 1 0.5
vn 0 -1 0
f 1/1/1 4/2/2 3/3/3
f 2/4/4 3/5/5 4/6/6
f 1/7/7 5/8/8 4/9/9
f 2/10/10 4/11/11 5/12/12
f 1/13/13 6/14/14 5/15/15
f 2/16/16 5/17/17 6/18/18
f 1/19/19 7/20/20 6/21/21
f 2/22/22 6/23/23 7/24/24
f 1/25/25 8/26/26 7/27/27
f 2/28/28 7/29/29 8/30/30
f 1/31/31 9/32/32 8/33/33
f 2/34/34 8/35/35 9/36/36
f 1/37/37 10/38/38 9/39/39
f 2/40/40 9/41/41 10/42/42
f 1/43/43 11/44/44 10/45/45
f 2/46/46 10/47/47 11/48/48
f 1/49/49 12/50/50 11/51/51
f 2/52/52 11/53/53 12/54/54
f 1/55/55 13/56/56 12/57/57
f 2/58/58 12/59/59 13/60/60
f 1/61/61 14/62/62 13/63/63
f 2/64/64 13/65/65 14/66/66
f 1/67/67 15/68/68 14/69/69
f 2/70/70 14/71/71 15/72/72
f 1/73/73 16/74/74 15/75/75
f 2/76/76 15/77/77 16/78/78
f 1/79/79 17/80/80 16/81/81
f 2/82/82 16/83/83 17/84/84
f 1/85/85 18/86/86 17/87/87
f 2/88/88 17/89/89 18/90/90
f 1/91/91 19/92/92 18/93/93
f 2/94/94 18/95/95 19/96/96
f 1/97/97 20/98/98 19/99/99
f 2/100/100 19/101/101 20/102/102
f 1/103/103 21/104/104 20/105/105
f 2/106/106 20/107/107 21/108/108
f 1/109/109 22/110/110 21/111/111
f 2/112/112 21/113/113 22/114/114
f 1/115/115 23/116/116 22/117/117
f 2/118/118 22/119/119 23/120/120
f 1/121/121 24/122/122 23/123/123
f 2/124/124 23/125/125 24/126/126
f 1/127/127 25/128/128 24/129/129
f 2/130/130 24/131/131 25/132/132
f 1/133/133 26/134/134 25/135/135
f 2/136/136 25/137/137 26/138/138
f 1/139/139 27/140/140 26/141/141
f 2/142/142 26/143/143 27/144/144
f 1/145/145 28/146/146 27/147/147
f 2/148/148 27/149/149 28/150/150
f 1/151/151 29/152/152 28/153/153
f 2/154/154 28/155/155 29/156/156
f 1/157/157 30/158/158 29/159/159
f 2/160/160 29/161/161 30/162/162
f 1/163/163 31/164/164 30/165/165
f 2/166/166 30/167/167 31/168/168
f 1/169/169 32/170/170 31/171/171
f 2/172/172 31/173/173 32/174/174
f 1/175/175 33/176/176 32/177/177
f 2/178/178 32/179/179 33/180/180
f 1/181/181 34/182/182 33/183/183
f 2/184/184 33/185/185 34/186/186
f 1/187/187 35/188/188 34/189/189
f 2/190/190 34/191/191 35/192/192
f 1/193/193 36/194/194 35/195/195
f 2/196/196 35/197/197 36/198/198
f 1/199/199 37/200/200 36/201/201
f 2/202/202 36/203/203 37/204/204
f 1/205/205 38/206/206 37/207/207
f 2/208/208 37/209/209 38/210/210
f 1/211/211 39/212/212 38/213/213
f 2/214/214 38/215/215 39/216/216
f 1/217/217 40/218/218 39/219/219
f 2/220/220 39/221/221 40/222/222
f 1/223/223 41/224/224 40/225/225
f 2/226/226 40/227/227 41/228/228
f 1/229/229 42/230/230 41/231/231
f 2/232/232 41/233/233 42/234/234
f 1/235/235 43/236/236 42/237/237
f 2/238/238 42/239/239 43/240/240
f 1/241/241 44/242/242 43/243/243
f 2/244/244 43/245/245 44/246/246
f 1/247/247 45/248/248 44/249/249
f 2/250/250 44/251/251 45/252/252
f 1/253/253 46/254/254 45/255/255
f 2/256/256 45/257/257 46/258/258
f 1/259/259 47/260/260 46/261/261
f 2/262/262 46/263/263 47/264/264
f 1/265/265 48/266/266 47/267/267
f 2/268/268 47/269/269 48/270/270
f 1/271/271 49/272/272 48/273/273
f 2/274/274 48/275/275 49/276/276
f 1/277/277 50/278/278 49/279/279
f 2/280/280 49/281/281 50/282/282
f 1/283/283 3/284/284 50/285/285
f 2/286/286 50/287/287 3/288/288
