# MetaSiberia standard primitive; generated by scripts/standard_primitive_library.py.
# Y-up, counter-clockwise outside, explicit UVs and normals.
o Hexagonal_Prism
usemtl default
v 0.5 -0.5 0
v 0.25 -0.5 0.433013
v -0.25 -0.5 0.433013
v -0.5 -0.5 0
v -0.25 -0.5 -0.433013
v 0.25 -0.5 -0.433013
v 0.5 0.5 0
v 0.25 0.5 0.433013
v -0.25 0.5 0.433013
v -0.5 0.5 0
v -0.25 0.5 -0.433013
v 0.25 0.5 -0.433013
vt 0.2500002582 0
vn 0 -1 0
vt 0.7500002582 0
vn 0 -1 0
vt 1 0.5
vn 0 -1 0
vt 0.7499997418 1
vn 0 -1 0
vt 0.2499997418 1
vn 0 -1 0
vt 0 0.5
vn 0 -1 0
vt 0.2500002582 0
vn 0 1 0
vt 0.7500002582 0
vn 0 1 0
vt 1 0.5
vn 0 1 0
vt 0.7499997418 1
vn 0 1 0
vt 0.2499997418 1
vn 0 1 0
vt 0 0.5
vn 0 1 0
vt 0 0
vn 0.8660255528 -0 0.4999997418
vt 1 0
vn 0.8660255528 -0 0.4999997418
vt 1 1
vn 0.8660255528 -0 0.4999997418
vt 0 1
vn 0.8660255528 -0 0.4999997418
vt 0 0
vn 0 -0 1
vt 1 0
vn 0 -0 1
vt 1 1
vn 0 -0 1
vt 0 1
vn 0 -0 1
vt 0 0
vn -0.8660255528 0 0.4999997418
vt 1 0
vn -0.8660255528 0 0.4999997418
vt 1 1
vn -0.8660255528 0 0.4999997418
vt 0 1
vn -0.8660255528 0 0.4999997418
vt 0 0
vn -0.8660255528 0 -0.4999997418
vt 1 0
vn -0.8660255528 0 -0.4999997418
vt 1 1
vn -0.8660255528 0 -0.4999997418
vt 0 1
vn -0.8660255528 0 -0.4999997418
vt 0 0
vn 0 0 -1
vt 1 0
vn 0 0 -1
vt 1 1
vn 0 0 -1
vt 0 1
vn 0 0 -1
vt 0 0
vn 0.8660255528 0 -0.4999997418
vt 1 0
vn 0.8660255528 0 -0.4999997418
vt 1 1
vn 0.8660255528 0 -0.4999997418
vt 0 1
vn 0.8660255528 0 -0.4999997418
f 1/1/1 2/2/2 3/3/3 4/4/4 5/5/5 6/6/6
f 7/7/7 12/8/8 11/9/9 10/10/10 9/11/11 8/12/12
f 1/13/13 7/14/14 8/15/15 2/16/16
f 2/17/17 8/18/18 9/19/19 3/20/20
f 3/21/21 9/22/22 10/23/23 4/24/24
f 4/25/25 10/26/26 11/27/27 5/28/28
f 5/29/29 11/30/30 12/31/31 6/32/32
f 6/33/33 12/34/34 7/35/35 1/36/36
