# MetaSiberia standard primitive; generated by scripts/standard_primitive_library.py.
# Y-up, counter-clockwise outside, explicit UVs and normals.
o Icosahedron
usemtl default
v 0 -0.2628655561 -0.4253254042
v -0.2628655561 -0.4253254042 0
v -0.4253254042 0 -0.2628655561
v 0 -0.2628655561 0.4253254042
v -0.2628655561 0.4253254042 0
v 0.4253254042 0 -0.2628655561
v 0 0.2628655561 -0.4253254042
v 0.2628655561 -0.4253254042 0
v -0.4253254042 0 0.2628655561
v 0 0.2628655561 0.4253254042
v 0.2628655561 0.4253254042 0
v 0.4253254042 0 0.2628655561
vt 0 0
vn -0.5773502692 -0.5773502692 -0.5773502692
vt 1 0
vn -0.5773502692 -0.5773502692 -0.5773502692
vt 0.5 1
vn -0.5773502692 -0.5773502692 -0.5773502692
vt 0 6.096153978e-17
vn 0 -0.934172359 -0.3568220898
vt 1 0
vn 0 -0.934172359 -0.3568220898
vt 0.5 1
vn 0 -0.934172359 -0.3568220898
vt 0 0
vn -0.3568220898 0 -0.934172359
vt 1 6.096153978e-17
vn -0.3568220898 0 -0.934172359
vt 0.5 1
vn -0.3568220898 0 -0.934172359
vt 0 0
vn 0.3568220898 0 -0.934172359
vt 1 0
vn 0.3568220898 0 -0.934172359
vt 0.5 1
vn 0.3568220898 0 -0.934172359
vt 0 0
vn 0.5773502692 -0.5773502692 -0.5773502692
vt 1 0
vn 0.5773502692 -0.5773502692 -0.5773502692
vt 0.5 1
vn 0.5773502692 -0.5773502692 -0.5773502692
vt 0 6.096153978e-17
vn -0.934172359 -0.3568220898 0
vt 1 0
vn -0.934172359 -0.3568220898 0
vt 0.5 1
vn -0.934172359 -0.3568220898 0
vt 0 0
vn 0 -0.934172359 0.3568220898
vt 1 0
vn 0 -0.934172359 0.3568220898
vt 0.5 1
vn 0 -0.934172359 0.3568220898
vt 0 0
vn -0.5773502692 -0.5773502692 0.5773502692
vt 1 0
vn -0.5773502692 -0.5773502692 0.5773502692
vt 0.5 1
vn -0.5773502692 -0.5773502692 0.5773502692
vt 0 0
vn -0.5773502692 0.5773502692 -0.5773502692
vt 1 0
vn -0.5773502692 0.5773502692 -0.5773502692
vt 0.5 1
vn -0.5773502692 0.5773502692 -0.5773502692
vt 0 0
vn -0.934172359 0.3568220898 0
vt 1 0
vn -0.934172359 0.3568220898 0
vt 0.5 1
vn -0.934172359 0.3568220898 0
vt 0 0
vn 0.5773502692 -0.5773502692 0.5773502692
vt 1 0
vn 0.5773502692 -0.5773502692 0.5773502692
vt 0.5 1
vn 0.5773502692 -0.5773502692 0.5773502692
vt 0 0
vn -0.3568220898 0 0.934172359
vt 1 0
vn -0.3568220898 0 0.934172359
vt 0.5 1
vn -0.3568220898 0 0.934172359
vt 0 0
vn 0.3568220898 -0 0.934172359
vt 1 6.096153978e-17
vn 0.3568220898 -0 0.934172359
vt 0.5 1
vn 0.3568220898 -0 0.934172359
vt 0 0
vn 0 0.934172359 -0.3568220898
vt 1 0
vn 0 0.934172359 -0.3568220898
vt 0.5 1
vn 0 0.934172359 -0.3568220898
vt 0 0
vn -0.5773502692 0.5773502692 0.5773502692
vt 1 0
vn -0.5773502692 0.5773502692 0.5773502692
vt 0.5 1
vn -0.5773502692 0.5773502692 0.5773502692
vt 0 0
vn -0 0.934172359 0.3568220898
vt 1 6.096153978e-17
vn -0 0.934172359 0.3568220898
vt 0.5 1
vn -0 0.934172359 0.3568220898
vt 0 0
vn 0.5773502692 0.5773502692 -0.5773502692
vt 1 0
vn 0.5773502692 0.5773502692 -0.5773502692
vt 0.5 1
vn 0.5773502692 0.5773502692 -0.5773502692
vt 0 0
vn 0.934172359 -0.3568220898 0
vt 1 0
vn 0.934172359 -0.3568220898 0
vt 0.5 1
vn 0.934172359 -0.3568220898 0
vt 0 0
vn 0.934172359 0.3568220898 -0
vt 1 6.096153978e-17
vn 0.934172359 0.3568220898 -0
vt 0.5 1
vn 0.934172359 0.3568220898 -0
vt 0 0
vn 0.5773502692 0.5773502692 0.5773502692
vt 1 0
vn 0.5773502692 0.5773502692 0.5773502692
vt 0.5 1
vn 0.5773502692 0.5773502692 0.5773502692
f 1/1/1 2/2/2 3/3/3
f 1/4/4 8/5/5 2/6/6
f 1/7/7 3/8/8 7/9/9
f 1/10/10 7/11/11 6/12/12
f 1/13/13 6/14/14 8/15/15
f 2/16/16 9/17/17 3/18/18
f 2/19/19 8/20/20 4/21/21
f 2/22/22 4/23/23 9/24/24
f 3/25/25 5/26/26 7/27/27
f 3/28/28 9/29/29 5/30/30
f 4/31/31 8/32/32 12/33/33
f 4/34/34 10/35/35 9/36/36
f 4/37/37 12/38/38 10/39/39
f 5/40/40 11/41/41 7/42/42
f 5/43/43 9/44/44 10/45/45
f 5/46/46 10/47/47 11/48/48
f 6/49/49 7/50/50 11/51/51
f 6/52/52 12/53/53 8/54/54
f 6/55/55 11/56/56 12/57/57
f 10/58/58 12/59/59 11/60/60
