# MetaSiberia standard primitive; generated by scripts/standard_primitive_library.py.
# Y-up, counter-clockwise outside, explicit UVs and normals.
o Octahedron
usemtl default
v 0 0.5 0
v 0 -0.5 0
v 0.5 0 0
v 0 0 0.5
v -0.5 0 0
v 0 0 -0.5
vt 0 0
vn 0.5773502692 0.5773502692 0.5773502692
vt 1 0
vn 0.5773502692 0.5773502692 0.5773502692
vt 0.5 1
vn 0.5773502692 0.5773502692 0.5773502692
vt 0 0
vn -0.5773502692 0.5773502692 0.5773502692
vt 1 0
vn -0.5773502692 0.5773502692 0.5773502692
vt 0.5 1
vn -0.5773502692 0.5773502692 0.5773502692
vt 0 0
vn -0.5773502692 0.5773502692 -0.5773502692
vt 1 0
vn -0.5773502692 0.5773502692 -0.5773502692
vt 0.5 1
vn -0.5773502692 0.5773502692 -0.5773502692
vt 0 0
vn 0.5773502692 0.5773502692 -0.5773502692
vt 1 0
vn 0.5773502692 0.5773502692 -0.5773502692
vt 0.5 1
vn 0.5773502692 0.5773502692 -0.5773502692
vt 0 0
vn 0.5773502692 -0.5773502692 0.5773502692
vt 1 0
vn 0.5773502692 -0.5773502692 0.5773502692
vt 0.5 1
vn 0.5773502692 -0.5773502692 0.5773502692
vt 0 0
vn -0.5773502692 -0.5773502692 0.5773502692
vt 1 0
vn -0.5773502692 -0.5773502692 0.5773502692
vt 0.5 1
vn -0.5773502692 -0.5773502692 0.5773502692
vt 0 0
vn -0.5773502692 -0.5773502692 -0.5773502692
vt 1 0
vn -0.5773502692 -0.5773502692 -0.5773502692
vt 0.5 1
vn -0.5773502692 -0.5773502692 -0.5773502692
vt 0 0
vn 0.5773502692 -0.5773502692 -0.5773502692
vt 1 0
vn 0.5773502692 -0.5773502692 -0.5773502692
vt 0.5 1
vn 0.5773502692 -0.5773502692 -0.5773502692
f 1/1/1 4/2/2 3/3/3
f 1/4/4 5/5/5 4/6/6
f 1/7/7 6/8/8 5/9/9
f 1/10/10 3/11/11 6/12/12
f 2/13/13 3/14/14 4/15/15
f 2/16/16 4/17/17 5/18/18
f 2/19/19 5/20/20 6/21/21
f 2/22/22 6/23/23 3/24/24
