# MetaSiberia standard primitive; generated by scripts/standard_primitive_library.py.
# Y-up, counter-clockwise outside, explicit UVs and normals.
o Pyramid
usemtl default
v 0 0.5 0
v -0.5 -0.5 -0.5
v 0.5 -0.5 -0.5
v 0.5 -0.5 0.5
v -0.5 -0.5 0.5
vt 0 0
vn 0 0.4472135955 -0.894427191
vt 1 3.040470972e-17
vn 0 0.4472135955 -0.894427191
vt 0.6666666667 1
vn 0 0.4472135955 -0.894427191
vt 0 0
vn 0.894427191 0.4472135955 0
vt 1 3.040470972e-17
vn 0.894427191 0.4472135955 0
vt 0.6666666667 1
vn 0.894427191 0.4472135955 0
vt 0 0
vn 0 0.4472135955 0.894427191
vt 1 3.040470972e-17
vn 0 0.4472135955 0.894427191
vt 0.6666666667 1
vn 0 0.4472135955 0.894427191
vt 0 0
vn -0.894427191 0.4472135955 0
vt 1 3.040470972e-17
vn -0.894427191 0.4472135955 0
vt 0.6666666667 1
vn -0.894427191 0.4472135955 0
vt 0 0
vn 0 -1 0
vt 1 0
vn 0 -1 0
vt 1 1
vn 0 -1 0
vt 0 1
vn 0 -1 0
f 1/1/1 3/2/2 2/3/3
f 1/4/4 4/5/5 3/6/6
f 1/7/7 5/8/8 4/9/9
f 1/10/10 2/11/11 5/12/12
f 2/13/13 3/14/14 4/15/15 5/16/16
