# MetaSiberia standard primitive; generated by scripts/standard_primitive_library.py.
# Y-up, counter-clockwise outside, explicit UVs and normals.
o Triangular_Prism
usemtl default
v -0.5 -0.5 -0.5
v 0.5 -0.5 -0.5
v 0 0.5 -0.5
v -0.5 -0.5 0.5
v 0.5 -0.5 0.5
v 0 0.5 0.5
vt 0 0
vn 0 0 -1
vt 1 0
vn 0 0 -1
vt 0.4 1
vn 0 0 -1
vt 0 0
vn 0 0 1
vt 1 0
vn 0 0 1
vt 0.5 1
vn 0 0 1
vt 0 0
vn 0 -1 0
vt 1 0
vn 0 -1 0
vt 1 1
vn 0 -1 0
vt 0 1
vn 0 -1 0
vt 0 0
vn 0.894427191 0.4472135955 0
vt 1 0
vn 0.894427191 0.4472135955 0
vt 1 1
vn 0.894427191 0.4472135955 0
vt 0 1
vn 0.894427191 0.4472135955 0
vt 0 0
vn -0.894427191 0.4472135955 0
vt 1 0
vn -0.894427191 0.4472135955 0
vt 1 1
vn -0.894427191 0.4472135955 0
vt 0 1
vn -0.894427191 0.4472135955 0
f 1/1/1 3/2/2 2/3/3
f 4/4/4 5/5/5 6/6/6
f 1/7/7 2/8/8 5/9/9 4/10/10
f 2/11/11 3/12/12 6/13/13 5/14/14
f 3/15/15 1/16/16 4/17/17 6/18/18
