# MetaSiberia standard primitive; generated by scripts/standard_primitive_library.py.
# Y-up, counter-clockwise outside, explicit UVs and normals.
o Wedge
usemtl default
v -0.5 -0.5 -0.5
v 0.5 -0.5 -0.5
v -0.5 0.5 -0.5
v -0.5 -0.5 0.5
v 0.5 -0.5 0.5
v -0.5 0.5 0.5
vt 0 0
vn 0 0 -1
vt 1 0
vn 0 0 -1
vt 0 1
vn 0 0 -1
vt 0 0
vn 0 0 1
vt 1 0
vn 0 0 1
vt 0 1
vn 0 0 1
vt 0 0
vn 0 -1 0
vt 1 0
vn 0 -1 0
vt 1 1
vn 0 -1 0
vt 0 1
vn 0 -1 0
vt 0 0
vn -1 0 0
vt 1 0
vn -1 0 0
vt 1 1
vn -1 0 0
vt 0 1
vn -1 0 0
vt 0 0
vn 0.7071067812 0.7071067812 0
vt 1 0
vn 0.7071067812 0.7071067812 0
vt 1 1
vn 0.7071067812 0.7071067812 0
vt 0 1
vn 0.7071067812 0.7071067812 0
f 1/1/1 3/2/2 2/3/3
f 4/4/4 5/5/5 6/6/6
f 1/7/7 2/8/8 5/9/9 4/10/10
f 1/11/11 4/12/12 6/13/13 3/14/14
f 2/15/15 3/16/16 6/17/17 5/18/18
